<?xml version="1.0" encoding="utf-8"?>
<!-- Generator: Adobe Illustrator 20.0.0, SVG Export Plug-In . SVG Version: 6.00 Build 0)  -->
<svg version="1.1" id="Layer_1" xmlns="http://www.w3.org/2000/svg" xmlns:xlink="http://www.w3.org/1999/xlink" x="0px" y="0px"
	 viewBox="0 0 1561 750" style="enable-background:new 0 0 1561 750;" xml:space="preserve">
<style type="text/css">
	.st0{fill:none;stroke:#3953A4;stroke-width:0.25;stroke-linecap:round;stroke-linejoin:round;}
	.st1{fill:none;stroke:#000000;stroke-width:0.25;stroke-linecap:round;stroke-linejoin:round;}
</style>
<title>Bulkhead-35mm</title>
<line class="st0" x1="1084.6" y1="687.1" x2="1076.3" y2="698.9"/>
<line class="st0" x1="1102" y1="698.1" x2="1091.2" y2="716.8"/>
<line class="st0" x1="1120.2" y1="707.6" x2="1114.1" y2="720.7"/>
<line class="st0" x1="1158.9" y1="721.7" x2="1155.2" y2="735.7"/>
<line class="st0" x1="1139.3" y1="715.5" x2="1131.9" y2="735.7"/>
<g>
	<g id="LWPOLYLINE-2_1_">
		<path class="st1" d="M58.4,222.4V66.5h-8.3v155.9h-5.8c-15.6,0-28.3-12.6-28.3-28.2c0,0,0,0,0-0.1v-156
			C15.9,22.5,28.5,9.9,44.1,9.8h0.1h198.4c15.6,0,28.3,12.6,28.3,28.2c0,0,0,0,0,0.1V194c0,15.6-12.6,28.3-28.2,28.3c0,0,0,0-0.1,0
			h-5.8V66.5h-8.3v155.9"/>
	</g>
	<line class="st1" x1="228.6" y1="222.6" x2="58.3" y2="222.6"/>
</g>
<g>
	<g id="LWPOLYLINE-2_2_">
		<path class="st1" d="M320.4,222.3V66.4h-8.3v155.9h-5.8c-15.6,0-28.3-12.6-28.3-28.2c0,0,0,0,0-0.1V38
			c-0.1-15.6,12.5-28.2,28.1-28.3h0.1h198.4c15.6,0,28.3,12.6,28.3,28.2c0,0,0,0,0,0.1v155.9c0,15.6-12.6,28.3-28.2,28.3
			c0,0,0,0-0.1,0h-5.8V66.4h-8.3v155.9"/>
	</g>
	<line class="st1" x1="490.6" y1="222.5" x2="320.3" y2="222.5"/>
</g>
<g id="CIRCLE_2_">
	<path class="st1" d="M405.4,142.9c-10.2,0-18.4-8.2-18.4-18.4s8.2-18.4,18.4-18.4s18.4,8.2,18.4,18.4l0,0
		C423.8,134.6,415.6,142.9,405.4,142.9z"/>
</g>
<line class="st1" x1="401.3" y1="106.5" x2="401.3" y2="100.2"/>
<line class="st1" x1="409.6" y1="100.2" x2="409.6" y2="106.5"/>
<line class="st1" x1="409.6" y1="88.5" x2="409.6" y2="94.6"/>
<line class="st1" x1="401.3" y1="94.6" x2="401.3" y2="88.5"/>
<path class="st1" d="M401.3,100.2"/>
<path class="st1" d="M409.6,100.2"/>
<polyline class="st1" points="409.6,94.6 412.5,94.6 412.5,100.2 409.6,100.2 "/>
<path class="st1" d="M401.3,94.6"/>
<polyline class="st1" points="401.3,100.2 398.3,100.2 398.3,94.6 401.3,94.6 "/>
<polyline class="st1" points="401.1,88.5 397.7,88.5 397.7,74.2 413.1,74.2 413.1,88.5 409.6,88.5 "/>
<line class="st1" x1="392" y1="137.1" x2="386.5" y2="140.2"/>
<line class="st1" x1="382.4" y1="133" x2="387.8" y2="129.8"/>
<line class="st1" x1="372.2" y1="138.8" x2="377.4" y2="135.8"/>
<line class="st1" x1="381.6" y1="143" x2="376.4" y2="146.1"/>
<path class="st1" d="M386.5,140.2"/>
<path class="st1" d="M382.4,133"/>
<polyline class="st1" points="377.4,135.8 376,133.3 380.9,130.4 382.4,133 "/>
<path class="st1" d="M381.6,143"/>
<polyline class="st1" points="386.5,140.2 388,142.7 383.1,145.6 381.6,143 "/>
<polyline class="st1" points="376.4,146.2 378.1,149.1 365.8,156.2 358.1,143 370.4,135.8 372.2,138.8 "/>
<line class="st1" x1="423.1" y1="129.8" x2="428.5" y2="133"/>
<line class="st1" x1="424.3" y1="140.2" x2="418.9" y2="137.1"/>
<line class="st1" x1="434.5" y1="146.1" x2="429.2" y2="143"/>
<line class="st1" x1="433.4" y1="135.8" x2="438.7" y2="138.8"/>
<path class="st1" d="M428.5,133"/>
<path class="st1" d="M424.3,140.2"/>
<polyline class="st1" points="429.2,143 427.8,145.6 422.9,142.7 424.3,140.2 "/>
<path class="st1" d="M433.4,135.8"/>
<polyline class="st1" points="428.5,133 430,130.4 434.9,133.3 433.4,135.8 "/>
<polyline class="st1" points="438.7,138.7 440.4,135.8 452.8,142.9 445.1,156.2 432.8,149.1 434.5,146.1 "/>
<path class="st1" d="M386.5,140.2"/>
<path class="st1" d="M386.5,140.2"/>
<circle class="st1" cx="127.2" cy="108.3" r="3.7"/>
<circle class="st1" cx="159.6" cy="108.3" r="3.7"/>
<rect x="125" y="136.2" class="st1" width="36.9" height="8.5"/>
<line class="st1" x1="405.4" y1="124.5" x2="405.4" y2="142.9"/>
</svg>
