<svg id="Layer_1" data-name="Layer 1" xmlns="http://www.w3.org/2000/svg" width="19.4928in" height="11.5816in" viewBox="0 0 1403.4804 833.8772">
  <defs>
    <style>
      .cls-1, .cls-2, .cls-3, .cls-4 {
        fill: none;
        stroke-linecap: round;
        stroke-linejoin: round;
        stroke-width: 0.75px;
      }

      .cls-1 {
        stroke: #000;
      }

      .cls-2 {
        stroke: #ed2024;
      }

      .cls-3 {
        stroke: #030303;
      }

      .cls-4 {
        stroke: #010101;
      }
    </style>
  </defs>
  <title>OpticCube4.3</title>
  <g id="LWPOLYLINE">
    <path class="cls-1" d="M352.45,625.0548V755.9208a245.2132,245.2132,0,0,1-170.0342,0V625.0548h-8.5017V752.5971A245.2592,245.2592,0,0,1,40.7208,619.3863C-10.9282,494.16,48.7046,350.7691,173.9143,299.1133s268.5821,7.9848,320.2311,133.2109S486.1617,700.9414,360.952,752.5971V625.0548Z" transform="translate(-11.4796 -9.1932)"/>
  </g>
  <g>
    <g id="LWPOLYLINE-2" data-name="LWPOLYLINE">
      <rect class="cls-1" x="884.4405" y="531.5019" width="8.5039" height="255.1181"/>
    </g>
    <g id="LWPOLYLINE-3" data-name="LWPOLYLINE">
      <rect class="cls-1" x="705.8579" y="531.5019" width="8.5039" height="255.1181"/>
    </g>
    <g id="CIRCLE">
      <path class="cls-1" d="M537.227,569.0415c0-151.1349,122.519-273.6539,273.6539-273.6539s273.6539,122.519,273.6539,273.6539S962.0157,842.6954,810.8808,842.6954,537.227,720.1764,537.227,569.0415Z" transform="translate(-11.4796 -9.1932)"/>
    </g>
    <g id="LINE">
      <line class="cls-2" x1="799.4012" y1="559.8484" x2="799.4012" y2="286.1945"/>
    </g>
    <g id="LINE-2" data-name="LINE">
      <line class="cls-2" x1="799.4012" y1="286.1945" x2="799.4012" y2="307.4543"/>
    </g>
    <g id="LINE-3" data-name="LINE">
      <line class="cls-2" x1="751.8817" y1="290.3519" x2="755.5734" y2="311.2888"/>
    </g>
    <g id="LINE-4" data-name="LINE">
      <line class="cls-2" x1="705.806" y1="302.6979" x2="713.0773" y2="322.6756"/>
    </g>
    <g id="LINE-5" data-name="LINE">
      <line class="cls-2" x1="662.5742" y1="322.8572" x2="673.2042" y2="341.2687"/>
    </g>
    <g id="LINE-6" data-name="LINE">
      <line class="cls-2" x1="623.4999" y1="350.2173" x2="637.1654" y2="366.5033"/>
    </g>
    <g id="LINE-7" data-name="LINE">
      <line class="cls-2" x1="589.7702" y1="383.9471" x2="606.0561" y2="397.6126"/>
    </g>
    <g id="LINE-8" data-name="LINE">
      <line class="cls-2" x1="562.41" y1="423.0214" x2="580.8215" y2="433.6514"/>
    </g>
    <g id="LINE-9" data-name="LINE">
      <line class="cls-2" x1="542.2507" y1="466.2532" x2="562.2284" y2="473.5245"/>
    </g>
    <g id="LINE-10" data-name="LINE">
      <line class="cls-2" x1="529.9047" y1="512.3289" x2="550.8416" y2="516.0206"/>
    </g>
    <g id="LINE-11" data-name="LINE">
      <line class="cls-2" x1="525.7473" y1="559.8484" x2="547.0072" y2="559.8484"/>
    </g>
    <g id="LINE-12" data-name="LINE">
      <path class="cls-2" d="M806.1049,295.4293" transform="translate(-11.4796 -9.1932)"/>
      <path class="cls-2" d="M810.8808,569.0415" transform="translate(-11.4796 -9.1932)"/>
    </g>
    <g id="LINE-13" data-name="LINE">
      <line class="cls-2" x1="794.6253" y1="286.2362" x2="794.8726" y2="300.4073"/>
    </g>
    <g id="LINE-14" data-name="LINE">
      <line class="cls-2" x1="789.8508" y1="286.3612" x2="790.3454" y2="300.5258"/>
    </g>
    <g id="LINE-15" data-name="LINE">
      <line class="cls-2" x1="785.0792" y1="286.5695" x2="785.821" y2="300.7233"/>
    </g>
    <g id="LINE-16" data-name="LINE">
      <line class="cls-2" x1="780.312" y1="286.8611" x2="781.3007" y2="300.9998"/>
    </g>
    <g id="LINE-17" data-name="LINE">
      <line class="cls-2" x1="775.5507" y1="287.2358" x2="776.7859" y2="301.3551"/>
    </g>
    <g id="LINE-18" data-name="LINE">
      <line class="cls-2" x1="770.7966" y1="287.6936" x2="772.2781" y2="301.7892"/>
    </g>
    <g id="LINE-19" data-name="LINE">
      <line class="cls-2" x1="766.0512" y1="288.2343" x2="767.7784" y2="302.3019"/>
    </g>
    <g id="LINE-20" data-name="LINE">
      <line class="cls-2" x1="761.3159" y1="288.8577" x2="763.2884" y2="302.893"/>
    </g>
    <g id="LINE-21" data-name="LINE">
      <line class="cls-2" x1="756.5923" y1="289.5636" x2="758.8095" y2="303.5624"/>
    </g>
    <g id="LINE-22" data-name="LINE">
      <line class="cls-2" x1="747.1856" y1="291.2223" x2="749.8899" y2="305.1351"/>
    </g>
    <g id="LINE-23" data-name="LINE">
      <line class="cls-2" x1="742.5053" y1="292.1745" x2="745.4521" y2="306.038"/>
    </g>
    <g id="LINE-24" data-name="LINE">
      <line class="cls-2" x1="737.8424" y1="293.2082" x2="741.0307" y2="307.0182"/>
    </g>
    <g id="LINE-25" data-name="LINE">
      <line class="cls-2" x1="733.1983" y1="294.3232" x2="736.6271" y2="308.0754"/>
    </g>
    <g id="LINE-26" data-name="LINE">
      <line class="cls-2" x1="728.5743" y1="295.519" x2="732.2426" y2="309.2093"/>
    </g>
    <g id="LINE-27" data-name="LINE">
      <line class="cls-2" x1="723.9719" y1="296.7954" x2="727.8786" y2="310.4196"/>
    </g>
    <g id="LINE-28" data-name="LINE">
      <line class="cls-2" x1="719.3925" y1="298.1519" x2="723.5364" y2="311.7058"/>
    </g>
    <g id="LINE-29" data-name="LINE">
      <line class="cls-2" x1="714.8375" y1="299.5881" x2="719.2172" y2="313.0676"/>
    </g>
    <g id="LINE-30" data-name="LINE">
      <line class="cls-2" x1="710.3082" y1="301.1036" x2="714.9225" y2="314.5046"/>
    </g>
    <g id="LINE-31" data-name="LINE">
      <line class="cls-2" x1="701.3324" y1="304.3705" x2="706.4116" y2="317.6023"/>
    </g>
    <g id="LINE-32" data-name="LINE">
      <line class="cls-2" x1="696.8886" y1="306.1209" x2="702.198" y2="319.2621"/>
    </g>
    <g id="LINE-33" data-name="LINE">
      <line class="cls-2" x1="692.4761" y1="307.9487" x2="698.014" y2="320.9952"/>
    </g>
    <g id="LINE-34" data-name="LINE">
      <line class="cls-2" x1="688.0961" y1="309.8531" x2="693.8609" y2="322.801"/>
    </g>
    <g id="LINE-35" data-name="LINE">
      <line class="cls-2" x1="683.7501" y1="311.8337" x2="689.7399" y2="324.679"/>
    </g>
    <g id="LINE-36" data-name="LINE">
      <line class="cls-2" x1="679.4392" y1="313.8899" x2="685.6524" y2="326.6287"/>
    </g>
    <g id="LINE-37" data-name="LINE">
      <line class="cls-2" x1="675.1649" y1="316.021" x2="681.5994" y2="328.6494"/>
    </g>
    <g id="LINE-38" data-name="LINE">
      <line class="cls-2" x1="670.9285" y1="318.2263" x2="677.5824" y2="330.7406"/>
    </g>
    <g id="LINE-39" data-name="LINE">
      <line class="cls-2" x1="666.7311" y1="320.5053" x2="673.6025" y2="332.9015"/>
    </g>
    <g id="LINE-40" data-name="LINE">
      <line class="cls-2" x1="658.459" y1="325.2812" x2="665.7588" y2="337.4301"/>
    </g>
    <g id="LINE-41" data-name="LINE">
      <line class="cls-2" x1="654.3867" y1="327.7767" x2="661.8974" y2="339.7963"/>
    </g>
    <g id="LINE-42" data-name="LINE">
      <line class="cls-2" x1="650.3586" y1="330.3429" x2="658.0779" y2="342.2296"/>
    </g>
    <g id="LINE-43" data-name="LINE">
      <line class="cls-2" x1="646.3759" y1="332.979" x2="654.3014" y2="344.7292"/>
    </g>
    <g id="LINE-44" data-name="LINE">
      <line class="cls-2" x1="642.4398" y1="335.6842" x2="650.5692" y2="347.2943"/>
    </g>
    <g id="LINE-45" data-name="LINE">
      <line class="cls-2" x1="638.5515" y1="338.4577" x2="646.8823" y2="349.9241"/>
    </g>
    <g id="LINE-46" data-name="LINE">
      <line class="cls-2" x1="634.7122" y1="341.2987" x2="643.2418" y2="352.6179"/>
    </g>
    <g id="LINE-47" data-name="LINE">
      <line class="cls-2" x1="630.923" y1="344.2062" x2="639.6489" y2="355.3748"/>
    </g>
    <g id="LINE-48" data-name="LINE">
      <line class="cls-2" x1="627.1852" y1="347.1794" x2="636.1047" y2="358.194"/>
    </g>
    <g id="LINE-49" data-name="LINE">
      <line class="cls-2" x1="619.8681" y1="353.3192" x2="629.1666" y2="364.0158"/>
    </g>
    <g id="LINE-50" data-name="LINE">
      <line class="cls-2" x1="616.291" y1="356.4839" x2="625.7747" y2="367.0167"/>
    </g>
    <g id="LINE-51" data-name="LINE">
      <line class="cls-2" x1="612.7697" y1="359.7106" x2="622.4358" y2="370.0762"/>
    </g>
    <g id="LINE-52" data-name="LINE">
      <line class="cls-2" x1="609.3052" y1="362.9983" x2="619.1508" y2="373.1936"/>
    </g>
    <g id="LINE-53" data-name="LINE">
      <line class="cls-2" x1="605.8987" y1="366.3459" x2="615.9207" y2="376.3679"/>
    </g>
    <g id="LINE-54" data-name="LINE">
      <line class="cls-2" x1="602.5511" y1="369.7524" x2="612.7464" y2="379.598"/>
    </g>
    <g id="LINE-55" data-name="LINE">
      <line class="cls-2" x1="599.2634" y1="373.2169" x2="609.6291" y2="382.883"/>
    </g>
    <g id="LINE-56" data-name="LINE">
      <line class="cls-2" x1="596.0367" y1="376.7382" x2="606.5695" y2="386.2219"/>
    </g>
    <g id="LINE-57" data-name="LINE">
      <line class="cls-2" x1="592.872" y1="380.3153" x2="603.5687" y2="389.6138"/>
    </g>
    <g id="LINE-58" data-name="LINE">
      <line class="cls-2" x1="586.7322" y1="387.6324" x2="597.7468" y2="396.5519"/>
    </g>
    <g id="LINE-59" data-name="LINE">
      <line class="cls-2" x1="583.759" y1="391.3702" x2="594.9276" y2="400.0961"/>
    </g>
    <g id="LINE-60" data-name="LINE">
      <line class="cls-2" x1="580.8515" y1="395.1594" x2="592.1707" y2="403.689"/>
    </g>
    <g id="LINE-61" data-name="LINE">
      <line class="cls-2" x1="578.0106" y1="398.9987" x2="589.4769" y2="407.3295"/>
    </g>
    <g id="LINE-62" data-name="LINE">
      <line class="cls-2" x1="575.2371" y1="402.887" x2="586.8471" y2="411.0164"/>
    </g>
    <g id="LINE-63" data-name="LINE">
      <line class="cls-2" x1="572.5318" y1="406.8231" x2="584.282" y2="414.7486"/>
    </g>
    <g id="LINE-64" data-name="LINE">
      <line class="cls-2" x1="569.8957" y1="410.8058" x2="581.7824" y2="418.5251"/>
    </g>
    <g id="LINE-65" data-name="LINE">
      <line class="cls-2" x1="567.3295" y1="414.8339" x2="579.3491" y2="422.3446"/>
    </g>
    <g id="LINE-66" data-name="LINE">
      <line class="cls-2" x1="564.834" y1="418.9062" x2="576.9829" y2="426.206"/>
    </g>
    <g id="LINE-67" data-name="LINE">
      <line class="cls-2" x1="560.0581" y1="427.1783" x2="572.4543" y2="434.0497"/>
    </g>
    <g id="LINE-68" data-name="LINE">
      <line class="cls-2" x1="557.7792" y1="431.3757" x2="570.2934" y2="438.0296"/>
    </g>
    <g id="LINE-69" data-name="LINE">
      <line class="cls-2" x1="555.5738" y1="435.6121" x2="568.2022" y2="442.0466"/>
    </g>
    <g id="LINE-70" data-name="LINE">
      <line class="cls-2" x1="553.4427" y1="439.8864" x2="566.1815" y2="446.0995"/>
    </g>
    <g id="LINE-71" data-name="LINE">
      <line class="cls-2" x1="551.3866" y1="444.1972" x2="564.2319" y2="450.1871"/>
    </g>
    <g id="LINE-72" data-name="LINE">
      <line class="cls-2" x1="549.4059" y1="448.5433" x2="562.3538" y2="454.3081"/>
    </g>
    <g id="LINE-73" data-name="LINE">
      <line class="cls-2" x1="547.5015" y1="452.9233" x2="560.548" y2="458.4612"/>
    </g>
    <g id="LINE-74" data-name="LINE">
      <line class="cls-2" x1="545.6737" y1="457.3358" x2="558.8149" y2="462.6452"/>
    </g>
    <g id="LINE-75" data-name="LINE">
      <line class="cls-2" x1="543.9233" y1="461.7796" x2="557.1551" y2="466.8588"/>
    </g>
    <g id="LINE-76" data-name="LINE">
      <line class="cls-2" x1="540.6564" y1="470.7554" x2="554.0574" y2="475.3697"/>
    </g>
    <g id="LINE-77" data-name="LINE">
      <line class="cls-2" x1="539.1409" y1="475.2847" x2="552.6204" y2="479.6644"/>
    </g>
    <g id="LINE-78" data-name="LINE">
      <line class="cls-2" x1="537.7047" y1="479.8397" x2="551.2586" y2="483.9836"/>
    </g>
    <g id="LINE-79" data-name="LINE">
      <line class="cls-2" x1="536.3482" y1="484.4191" x2="549.9724" y2="488.3258"/>
    </g>
    <g id="LINE-80" data-name="LINE">
      <line class="cls-2" x1="535.0718" y1="489.0215" x2="548.7621" y2="492.6898"/>
    </g>
    <g id="LINE-81" data-name="LINE">
      <line class="cls-2" x1="533.876" y1="493.6455" x2="547.6282" y2="497.0743"/>
    </g>
    <g id="LINE-82" data-name="LINE">
      <line class="cls-2" x1="532.761" y1="498.2896" x2="546.571" y2="501.4779"/>
    </g>
    <g id="LINE-83" data-name="LINE">
      <line class="cls-2" x1="531.7273" y1="502.9525" x2="545.5908" y2="505.8993"/>
    </g>
    <g id="LINE-84" data-name="LINE">
      <line class="cls-2" x1="530.7751" y1="507.6327" x2="544.6879" y2="510.3371"/>
    </g>
    <g id="LINE-85" data-name="LINE">
      <line class="cls-2" x1="529.1164" y1="517.0395" x2="543.1152" y2="519.2567"/>
    </g>
    <g id="LINE-86" data-name="LINE">
      <line class="cls-2" x1="528.4105" y1="521.7631" x2="542.4458" y2="523.7356"/>
    </g>
    <g id="LINE-87" data-name="LINE">
      <line class="cls-2" x1="527.7871" y1="526.4983" x2="541.8547" y2="528.2256"/>
    </g>
    <g id="LINE-88" data-name="LINE">
      <line class="cls-2" x1="527.2464" y1="531.2437" x2="541.342" y2="532.7253"/>
    </g>
    <g id="LINE-89" data-name="LINE">
      <line class="cls-2" x1="526.7887" y1="535.9979" x2="540.9079" y2="537.2331"/>
    </g>
    <g id="LINE-90" data-name="LINE">
      <line class="cls-2" x1="526.4139" y1="540.7592" x2="540.5526" y2="541.7479"/>
    </g>
    <g id="LINE-91" data-name="LINE">
      <line class="cls-2" x1="526.1223" y1="545.5264" x2="540.2762" y2="546.2682"/>
    </g>
    <g id="LINE-92" data-name="LINE">
      <line class="cls-2" x1="525.914" y1="550.298" x2="540.0786" y2="550.7926"/>
    </g>
    <g id="LINE-93" data-name="LINE">
      <line class="cls-2" x1="525.789" y1="555.0724" x2="539.9601" y2="555.3198"/>
    </g>
    <g id="LINE-94" data-name="LINE">
      <line class="cls-2" x1="525.789" y1="564.6243" x2="539.9601" y2="564.3769"/>
    </g>
    <g id="LINE-95" data-name="LINE">
      <line class="cls-2" x1="525.914" y1="569.3987" x2="540.0786" y2="568.9041"/>
    </g>
    <g id="LINE-96" data-name="LINE">
      <line class="cls-2" x1="526.1223" y1="574.1703" x2="540.2762" y2="573.4285"/>
    </g>
    <g id="LINE-97" data-name="LINE">
      <line class="cls-2" x1="526.4139" y1="578.9375" x2="540.5526" y2="577.9488"/>
    </g>
    <g id="LINE-98" data-name="LINE">
      <line class="cls-2" x1="526.7887" y1="583.6989" x2="540.9079" y2="582.4636"/>
    </g>
    <g id="LINE-99" data-name="LINE">
      <line class="cls-2" x1="527.2464" y1="588.453" x2="541.342" y2="586.9715"/>
    </g>
    <g id="LINE-100" data-name="LINE">
      <line class="cls-2" x1="527.7871" y1="593.1984" x2="541.8547" y2="591.4711"/>
    </g>
    <g id="LINE-101" data-name="LINE">
      <line class="cls-2" x1="528.4105" y1="597.9336" x2="542.4458" y2="595.9611"/>
    </g>
    <g id="LINE-102" data-name="LINE">
      <line class="cls-2" x1="529.1164" y1="602.6573" x2="543.1152" y2="600.4401"/>
    </g>
  </g>
  <circle class="cls-1" cx="799.4012" cy="559.8484" r="5.6693"/>
  <circle class="cls-1" cx="255.9535" cy="516.6299" r="5.6693"/>
  <line class="cls-1" x1="1296.9553" y1="336.0126" x2="1296.9553" y2="506.3126"/>
  <circle class="cls-1" cx="1197.7553" cy="450.9126" r="3.1"/>
  <circle class="cls-1" cx="1197.7553" cy="391.4126" r="3.1"/>
  <circle class="cls-1" cx="1233.1553" cy="450.9126" r="3.1"/>
  <circle class="cls-1" cx="1233.1553" cy="391.4126" r="3.1"/>
  <g>
    <g id="LWPOLYLINE-2-2" data-name="LWPOLYLINE-2">
      <path class="cls-1" d="M1308.1349,515.4055h-155.9v8.3h155.9v5.8a28.2527,28.2527,0,0,1-28.2,28.3h-156.1a28.1672,28.1672,0,0,1-28.3-28.1v-198.5a28.2527,28.2527,0,0,1,28.2-28.3h156a28.2527,28.2527,0,0,1,28.3,28.2v5.9h-155.8v8.3h155.9" transform="translate(-11.4796 -9.1932)"/>
    </g>
    <path class="cls-1" d="M1308.3349,515.5055" transform="translate(-11.4796 -9.1932)"/>
    <path class="cls-1" d="M1308.3349,345.2054" transform="translate(-11.4796 -9.1932)"/>
  </g>
  <g id="LWPOLYLINE-4" data-name="LWPOLYLINE">
    <path class="cls-1" d="M437.3772,66.31V9.6638h53.8142V66.31h8.497V9.6638a28.3232,28.3232,0,0,1,28.3232,28.3232V236.25a28.3232,28.3232,0,0,1-28.3232,28.3232H301.4257A28.3232,28.3232,0,0,1,273.1024,236.25v-5.6646H400.557v-8.497H273.1024V37.9871A28.3232,28.3232,0,0,1,301.4257,9.6638V66.31h50.9818V9.6638H428.88V66.31Z" transform="translate(-11.4796 -9.1932)"/>
  </g>
  <g id="LWPOLYLINE-5" data-name="LWPOLYLINE">
    <path class="cls-1" d="M176.1295,66.31V9.6638h53.8142V66.31h8.497V9.6638a28.3232,28.3232,0,0,1,28.3232,28.3232V236.25a28.3232,28.3232,0,0,1-28.3232,28.3232H40.1779A28.3232,28.3232,0,0,1,11.8546,236.25v-5.6646H139.3092v-8.497H11.8546V37.9871A28.3232,28.3232,0,0,1,40.1779,9.6638V66.31H91.16V9.6638h76.4728V66.31Z" transform="translate(-11.4796 -9.1932)"/>
  </g>
  <g id="LWPOLYLINE-7">
    <rect class="cls-3" x="605.3827" y="78.275" width="68" height="99.2"/>
  </g>
  <g id="LWPOLYLINE-6" data-name="LWPOLYLINE">
    <path class="cls-4" d="M1414.5851,226.3682h-155.9v8.8h155.9v5.4a28.2739,28.2739,0,0,1-28.3,28.3h-155.9a28.274,28.274,0,0,1-28.3-28.3v-198.4a28.2739,28.2739,0,0,1,28.3-28.3h155.9a28.274,28.274,0,0,1,28.3,28.3v5.4h-155.9v8.8h155.9Z" transform="translate(-11.4796 -9.1932)"/>
  </g>
  <circle class="cls-1" cx="1107.149" cy="453.761" r="3.8976"/>
  <circle class="cls-1" cx="1271.5616" cy="453.761" r="3.8976"/>
  <circle class="cls-1" cx="1271.5616" cy="388.5642" r="3.8976"/>
  <circle class="cls-1" cx="1107.149" cy="388.5642" r="3.8976"/>
  <g>
    <g id="LWPOLYLINE-2-3" data-name="LWPOLYLINE-2">
      <path class="cls-4" d="M748.0123,222.0682h-155.9v8.3h155.9v5.8a28.2527,28.2527,0,0,1-28.2,28.3h-156.1a28.1673,28.1673,0,0,1-28.3-28.1v-198.5a28.2527,28.2527,0,0,1,28.2-28.3h156a28.2527,28.2527,0,0,1,28.3,28.2v5.9h-155.8v8.3h155.9" transform="translate(-11.4796 -9.1932)"/>
    </g>
    <line class="cls-4" x1="736.7326" y1="42.675" x2="736.7326" y2="212.975"/>
  </g>
  <g id="CIRCLE-2" data-name="CIRCLE">
    <path class="cls-4" d="M1357.935,141.3682a41.1,41.1,0,1,1-41.1-41.1h0A41.0986,41.0986,0,0,1,1357.935,141.3682Z" transform="translate(-11.4796 -9.1932)"/>
  </g>
  <g>
    <g id="LWPOLYLINE-2-4" data-name="LWPOLYLINE-2">
      <path class="cls-4" d="M1308.285,790.5973h-155.9v8.3h155.9v5.8a28.2527,28.2527,0,0,1-28.2,28.3h-156.1a28.1673,28.1673,0,0,1-28.3-28.1v-198.5a28.2527,28.2527,0,0,1,28.2-28.3h156a28.2527,28.2527,0,0,1,28.3,28.2v5.9h-155.8v8.3h155.9" transform="translate(-11.4796 -9.1932)"/>
    </g>
    <line class="cls-4" x1="1297.0053" y1="611.2041" x2="1297.0053" y2="781.5041"/>
  </g>
  <g id="CIRCLE-3" data-name="CIRCLE">
    <path class="cls-4" d="M1228.885,705.5973a18.4,18.4,0,1,1-18.4-18.4h0A18.3516,18.3516,0,0,1,1228.885,705.5973Z" transform="translate(-11.4796 -9.1932)"/>
  </g>
  <rect class="cls-4" x="1163.0594" y="692.229" width="28.3" height="8.3"/>
  <rect class="cls-4" x="1169.1053" y="689.2041" width="5.7" height="14.2"/>
  <rect class="cls-4" x="1149.6053" y="689.3041" width="13.4" height="14.2"/>
  <rect class="cls-4" x="1217.208" y="710.3286" width="8.2998" height="28.2994" transform="translate(-210.0881 698.5655) rotate(-30.0007)"/>
  <rect class="cls-4" x="1216.8502" y="726.2648" width="14.1997" height="5.6999" transform="translate(-212.0591 700.4828) rotate(-30.0007)"/>
  <rect class="cls-4" x="1224.7622" y="735.8735" width="14.1997" height="13.3997" transform="translate(-217.7285 706.2421) rotate(-30.0007)"/>
  <rect class="cls-4" x="1207.2476" y="682.7023" width="28.2994" height="8.2998" transform="translate(4.3784 1391.9787) rotate(-59.9993)"/>
  <rect class="cls-4" x="1221.2014" y="675.1622" width="5.6999" height="14.1997" transform="translate(9.6807 1391.9821) rotate(-59.9993)"/>
  <rect class="cls-4" x="1225.0715" y="661.5303" width="13.3997" height="14.1997" transform="translate(25.346 1391.852) rotate(-59.9993)"/>
  <g id="LWPOLYLINE-7-2" data-name="LWPOLYLINE-7">
    <rect class="cls-3" x="824.0548" y="80.575" width="68" height="99.2"/>
  </g>
  <g>
    <g id="LWPOLYLINE-2-5" data-name="LWPOLYLINE-2">
      <path class="cls-4" d="M966.6844,224.3682h-155.9v8.3h155.9v5.8a28.2527,28.2527,0,0,1-28.2,28.3h-156.1a28.1673,28.1673,0,0,1-28.3-28.1v-198.5a28.2527,28.2527,0,0,1,28.2-28.3h156a28.2527,28.2527,0,0,1,28.3,28.2v5.9h-155.8v8.3h155.9" transform="translate(-11.4796 -9.1932)"/>
    </g>
    <line class="cls-4" x1="955.4047" y1="44.9751" x2="955.4047" y2="215.275"/>
  </g>
  <g id="LWPOLYLINE-7-3" data-name="LWPOLYLINE">
    <path class="cls-4" d="M1190.7347,226.3682h-155.9v8.8h155.9v5.4a28.2739,28.2739,0,0,1-28.3,28.3h-155.9a28.274,28.274,0,0,1-28.3-28.3v-198.4a28.2739,28.2739,0,0,1,28.3-28.3h155.9a28.274,28.274,0,0,1,28.3,28.3v5.4h-155.9v8.8h155.9Z" transform="translate(-11.4796 -9.1932)"/>
  </g>
  <g id="CIRCLE-4" data-name="CIRCLE">
    <path class="cls-4" d="M1134.0847,141.3682a41.1,41.1,0,1,1-41.1-41.1h0A41.0986,41.0986,0,0,1,1134.0847,141.3682Z" transform="translate(-11.4796 -9.1932)"/>
  </g>
</svg>
